<svg width="80" height="80" viewBox="0 0 80 80" fill="none" xmlns="http://www.w3.org/2000/svg">
<g clip-path="url(#clip0)">
<path d="M0 81V0H80V81H0Z" fill="#C50341"/>
<path d="M64.1024 66.8834C62.0551 65.3558 58.3386 62.8204 54.2914 60.9463C50.2441 59.0881 47.8662 54.7259 48.5118 50.3322C48.5118 50.2692 48.5276 50.2062 48.5433 50.1274C48.5433 50.1274 57.7559 43.8912 56.4803 37.8125C56.4803 37.8125 56.7638 37.8282 57.189 37.7967C61.252 37.4188 61.504 31.3715 57.4882 30.7259C57.4567 30.7259 57.4095 30.7101 57.378 30.7101L57.252 30.0487C58.4803 25.7495 61.4725 12.7258 52.4173 13.9857C52.4173 13.9857 45.9134 3.22978 32.1654 8.41088C18.4016 13.5762 21.9921 25.907 21.9921 25.907L23.6929 30.8203C19.9921 31.7337 20.3386 37.4503 24.2756 37.8125C24.7008 37.844 25 37.8282 25 37.8282C23.7087 43.907 32.9213 50.1432 32.9213 50.1432C32.937 50.2219 32.937 50.2849 32.9528 50.3479C33.5827 54.7416 31.2047 59.1038 27.1732 60.9621C23.1103 62.8361 19.4095 65.3873 17.3622 66.8991C16.1339 67.7967 9.83465 78.8991 9 80.1747C17.3622 82.6156 30.5748 80.1747 40.7323 80.1747C50.9055 80.1747 64.1024 82.6156 71.7559 80.1747C70.937 78.9149 65.3307 67.781 64.1024 66.8834Z" fill="#552C8A"/>
</g>
<defs>
<clipPath id="clip0">
<rect width="80" height="80" fill="white"/>
</clipPath>
</defs>
</svg>
